<?xml version="1.0" encoding="utf-8"?>
<!-- Generator: Adobe Illustrator 21.1.0, SVG Export Plug-In . SVG Version: 6.00 Build 0)  -->
<svg version="1.1" id="Logo_1_" xmlns="http://www.w3.org/2000/svg" xmlns:xlink="http://www.w3.org/1999/xlink" x="0px" y="0px"
	 viewBox="0 0 766.8 725.5" style="enable-background:new 0 0 766.8 725.5;" xml:space="preserve">
<style type="text/css">
	.st0{fill:#7C7C7C;}
	.st1{fill:#D87E35;}
	.st2{display:none;}
	.st3{display:inline;fill:#F2A972;}
	.st4{display:inline;}
	.st5{fill:#FFFFFF;}
	.st6{fill:#F7CAA6;stroke:#D87E35;stroke-width:12;stroke-miterlimit:10;}
</style>
<g id="Transparent">
</g>
<g id="Color" class="st2">
	<rect id="Bacground" x="-734.1" y="-717.3" class="st3" width="3840" height="2160"/>
</g>
<g id="Icon">
	<g id="Ecoli_1_">
		<path class="st6" d="M580.7,659.3c-12,0.5-24-2.1-34.7-7.5c-40.3-20.3-96.5-59.1-135.2-128.8c-40-72-49.3-158-26.3-242.2
			c15.2-55.4,44-104.9,85.7-146.8c28.3-28.5,56.1-46.9,74.4-57.4c9.8-5.6,20.9-8.8,32.2-9.2c26.6-1.1,51.3,12.6,64.5,35.8
			c19.3,34,7.4,77.4-26.6,96.7c-21.7,12.4-74.3,48.6-93.4,118.4c-7.6,27.9-16.1,82.7,13.5,135.9c21.2,38.2,52.5,59.7,75,71
			c16.9,8.5,29.5,23.1,35.5,41.1c5.9,18,4.5,37.2-4,54.1C629.6,643.3,606.5,658.2,580.7,659.3z"/>
	</g>
	<g id="C_2_">
		<path class="st1" d="M326.7,521.3c-14.9,7.5-44.8,14.9-83.1,14.9C154.8,536.3,88,480.2,88,377c0-98.5,66.8-165.3,164.4-165.3
			c39.2,0,64,8.4,74.7,14l-9.8,33.2c-15.4-7.5-37.4-13.1-63.5-13.1C180,245.8,131,293,131,375.6c0,77.1,44.4,126.6,121,126.6
			c24.8,0,50-5.1,66.3-13.1L326.7,521.3z"/>
	</g>
</g>
</svg>
