<svg id="Logo" xmlns="http://www.w3.org/2000/svg" viewBox="0 0 766.82 725.54"><defs><style>.cls-1{fill:#f2a972;}.cls-2{fill:#f7caa6;}.cls-3{fill:#d87e35;}</style></defs><title>ColiCoords_Icon</title><g id="Color"><g id="Bacground"><rect class="cls-1" x="-734.06" y="-717.3" width="3840" height="2160"/></g></g><g id="Icon"><g id="Ecoli"><path class="cls-2" d="M580.71,659.26a71.21,71.21,0,0,1-34.7-7.5c-40.3-20.26-96.48-59.06-135.22-128.82-40-72-49.33-158-26.27-242.23,15.18-55.45,44-104.86,85.65-146.85a350.57,350.57,0,0,1,74.39-57.35,70.9,70.9,0,0,1,70.13,123.24c-21.72,12.36-74.31,48.64-93.41,118.4-7.65,27.94-16.07,82.75,13.47,136,21.2,38.17,52.46,59.66,75,71a70.9,70.9,0,0,1-29,134.19Z"/><path class="cls-3" d="M577.88,665.31a77.17,77.17,0,0,1-34.56-8.19C502.26,636.48,445,597,405.54,525.85c-40.76-73.39-50.28-161-26.81-246.73,15.46-56.45,44.79-106.75,87.18-149.48a356.59,356.59,0,0,1,75.68-58.35A76.9,76.9,0,0,1,617.66,205c-21.08,12-72.09,47.18-90.59,114.78-7.41,27.06-15.58,80.11,12.92,131.44,20.46,36.84,50.67,57.6,72.41,68.53A76.9,76.9,0,0,1,581,665.25h0C579.92,665.29,578.9,665.31,577.88,665.31Zm1.78-592.08c-.88,0-1.77,0-2.66,0a65.29,65.29,0,0,0-29.48,8.45,344,344,0,0,0-73.09,56.36c-40.92,41.25-69.22,89.77-84.13,144.2C367.67,365,376.8,449.39,416,520c38,68.43,93.12,106.49,132.68,126.37a64.88,64.88,0,0,0,31.75,6.87h0A64.9,64.9,0,0,0,607,530.43c-23.25-11.69-55.56-33.91-77.51-73.42-30.57-55.06-21.9-111.62-14-140.44,19.7-71.93,73.86-109.3,96.23-122a64.9,64.9,0,0,0-32.06-121.3Z"/></g><g id="C"><path class="cls-3" d="M326.66,521.35c-14.94,7.47-44.83,14.94-83.13,14.94C154.79,536.29,88,480.25,88,377c0-98.55,66.79-165.34,164.4-165.34,39.24,0,64,8.41,74.73,14l-9.81,33.16c-15.41-7.47-37.36-13.07-63.52-13.07C180,245.79,131,293,131,375.63c0,77.06,44.37,126.57,121,126.57,24.76,0,50-5.14,66.33-13.08Z"/></g></g></svg>