<svg id="Logo" xmlns="http://www.w3.org/2000/svg" viewBox="0 0 3840 2160"><defs><style>.cls-1{fill:#f2a972;}.cls-2{fill:#fff;}.cls-3{fill:#d87e35;}.cls-4{fill:#f7caa6;}</style></defs><title>ColiCoords_Screen</title><g id="Color"><g id="Bacground"><rect class="cls-1" x="-3.51" y="-0.07" width="3840" height="2160"/></g><g id="Title"><path class="cls-2" d="M1750.71,1180.12c-10.58,5.3-31.76,10.59-58.88,10.59-62.86,0-110.16-39.7-110.16-112.81,0-69.8,47.3-117.11,116.44-117.11,27.79,0,45.32,6,52.93,9.93l-7,23.49c-10.91-5.3-26.46-9.27-45-9.27-52.26,0-87,33.42-87,92,0,54.58,31.43,89.65,85.68,89.65,17.53,0,35.4-3.64,47-9.26Z"/><path class="cls-2" d="M1927,1106c0,59.22-41,85-79.73,85-43.34,0-76.75-31.76-76.75-82.37,0-53.59,35.07-85,79.4-85C1895.94,1023.65,1927,1057.06,1927,1106Zm-127,1.65c0,35.07,20.18,61.54,48.63,61.54,27.79,0,48.63-26.14,48.63-62.2,0-27.12-13.56-61.53-48-61.53S1800,1077.24,1800,1107.67Z"/><path class="cls-2" d="M1963.76,952.52h29.11V1187.4h-29.11Z"/><path class="cls-2" d="M2074.25,982.3c.33,9.92-6.95,17.86-18.53,17.86-10.25,0-17.53-7.94-17.53-17.86a17.74,17.74,0,0,1,18.19-18.2C2067.3,964.1,2074.25,972,2074.25,982.3Zm-32.42,205.1V1027.29h29.11V1187.4Z"/><path class="cls-3" d="M2276,1180.12c-10.59,5.3-31.76,10.59-58.88,10.59-62.86,0-110.16-39.7-110.16-112.81,0-69.8,47.3-117.11,116.44-117.11,27.79,0,45.32,6,52.93,9.93l-6.95,23.49c-10.91-5.3-26.46-9.27-45-9.27-52.26,0-87,33.42-87,92,0,54.58,31.43,89.65,85.68,89.65,17.53,0,35.4-3.64,47-9.26Z"/><path class="cls-3" d="M2452.36,1106c0,59.22-41,85-79.72,85-43.34,0-76.75-31.76-76.75-82.37,0-53.59,35.07-85,79.4-85C2421.27,1023.65,2452.36,1057.06,2452.36,1106Zm-127,1.65c0,35.07,20.18,61.54,48.63,61.54,27.79,0,48.63-26.14,48.63-62.2,0-27.12-13.56-61.53-48-61.53S2325.33,1077.24,2325.33,1107.67Z"/><path class="cls-3" d="M2634,1106c0,59.22-41,85-79.72,85-43.34,0-76.75-31.76-76.75-82.37,0-53.59,35.06-85,79.39-85C2602.88,1023.65,2634,1057.06,2634,1106Zm-127,1.65c0,35.07,20.18,61.54,48.63,61.54,27.79,0,48.63-26.14,48.63-62.2,0-27.12-13.57-61.53-48-61.53S2507,1077.24,2507,1107.67Z"/><path class="cls-3" d="M2670.7,1077.24c0-18.86-.33-35.07-1.32-50h25.47l1,31.42h1.33c7.27-21.5,24.81-35.06,44.33-35.06a31.62,31.62,0,0,1,8.27,1v27.46a43.9,43.9,0,0,0-9.93-1c-20.51,0-35.06,15.54-39,37.38a81,81,0,0,0-1.33,13.56v85.35H2670.7Z"/><path class="cls-3" d="M2913.85,952.52v193.53c0,14.22.33,30.43,1.32,41.35H2889l-1.33-27.79h-.66c-8.93,17.87-28.45,31.43-54.58,31.43-38.71,0-68.48-32.75-68.48-81.38-.33-53.26,32.75-86,71.79-86,24.48,0,41,11.58,48.3,24.48h.66V952.52Zm-29.11,139.94a51,51,0,0,0-1.33-12.24c-4.3-18.53-20.18-33.75-42-33.75-30.1,0-48,26.47-48,61.87,0,32.42,15.88,59.21,47.31,59.21,19.52,0,37.38-12.9,42.67-34.73a50.21,50.21,0,0,0,1.33-12.57Z"/><path class="cls-3" d="M2958.18,1157.63c8.6,5.62,23.82,11.58,38.37,11.58,21.17,0,31.1-10.59,31.1-23.82,0-13.9-8.27-21.51-29.77-29.44-28.78-10.26-42.35-26.14-42.35-45.33,0-25.8,20.84-47,55.25-47,16.21,0,30.43,4.63,39.36,9.92l-7.27,21.17a62.35,62.35,0,0,0-32.75-9.26c-17.21,0-26.8,9.93-26.8,21.84,0,13.23,9.59,19.18,30.43,27.12,27.79,10.59,42,24.48,42,48.3,0,28.12-21.84,48-59.88,48-17.53,0-33.74-4.3-45-10.92Z"/></g></g><g id="Icon"><g id="Ecoli"><path class="cls-4" d="M1311.26,1376.49a71.11,71.11,0,0,1-34.7-7.51c-40.3-20.26-96.48-59-135.22-128.81-40-72-49.33-158-26.27-242.23,15.18-55.45,44-104.86,85.65-146.85a350.23,350.23,0,0,1,74.39-57.35A70.9,70.9,0,0,1,1345.24,917c-21.72,12.36-74.31,48.64-93.41,118.4-7.65,27.94-16.07,82.75,13.47,135.94,21.2,38.18,52.46,59.67,75,71a70.9,70.9,0,0,1-29,134.19Z"/><path class="cls-3" d="M1308.43,1382.54a77,77,0,0,1-34.56-8.2c-41.06-20.63-98.3-60.16-137.78-131.26-40.76-73.39-50.28-161-26.81-246.73,15.46-56.45,44.79-106.75,87.18-149.48a356.59,356.59,0,0,1,75.68-58.35,76.9,76.9,0,0,1,76.07,133.67c-21.08,12-72.09,47.18-90.59,114.78-7.41,27-15.58,80.11,12.92,131.44,20.46,36.84,50.67,57.6,72.41,68.53a76.9,76.9,0,0,1-31.45,145.54h0C1310.48,1382.52,1309.45,1382.54,1308.43,1382.54Zm1.78-592.08c-.88,0-1.77,0-2.66,0a65.41,65.41,0,0,0-29.48,8.44A344.42,344.42,0,0,0,1205,855.32c-40.92,41.25-69.22,89.77-84.13,144.2-22.63,82.67-13.5,167.1,25.73,237.73,38,68.43,93.12,106.49,132.68,126.37a64.88,64.88,0,0,0,31.75,6.87h0a64.9,64.9,0,0,0,26.55-122.83c-23.25-11.69-55.56-33.91-77.51-73.42-30.57-55.06-21.9-111.62-14-140.44,19.7-71.93,73.86-109.31,96.23-122a64.9,64.9,0,0,0-32.06-121.3Z"/></g><g id="C"><path class="cls-3" d="M1057.21,1238.58c-14.94,7.47-44.83,14.94-83.13,14.94-88.74,0-155.53-56-155.53-159.26,0-98.55,66.79-165.34,164.4-165.34,39.24,0,64,8.41,74.73,14l-9.81,33.16c-15.41-7.47-37.36-13.07-63.52-13.07-73.79,0-122.83,47.17-122.83,129.84,0,77.06,44.37,126.57,121,126.57,24.76,0,50-5.14,66.33-13.08Z"/></g></g></svg>