<svg id="Logo" xmlns="http://www.w3.org/2000/svg" viewBox="0 0 2478.94 725.47"><defs><style>.cls-1{fill:#f2a972;}.cls-2{fill:#fff;}.cls-3{fill:#d87e35;}.cls-4{fill:#f7caa6;}</style></defs><title>ColiCoords_Logo</title><g id="Color"><g id="Bacground"><rect class="cls-1" x="-734.06" y="-717.3" width="3840" height="2160"/></g><g id="Title"><path class="cls-2" d="M1020.16,462.89c-10.59,5.3-31.76,10.59-58.88,10.59-62.86,0-110.16-39.7-110.16-112.81,0-69.8,47.3-117.1,116.44-117.1,27.79,0,45.32,6,52.93,9.92l-7,23.49c-10.91-5.3-26.46-9.27-45-9.27-52.26,0-87,33.42-87,92,0,54.58,31.43,89.65,85.68,89.65,17.53,0,35.4-3.64,47-9.26Z"/><path class="cls-2" d="M1196.49,388.79c0,59.22-41,85-79.73,85-43.34,0-76.75-31.76-76.75-82.37,0-53.59,35.07-85,79.4-85C1165.39,306.42,1196.49,339.83,1196.49,388.79Zm-127,1.66c0,35.06,20.18,61.53,48.63,61.53,27.79,0,48.63-26.14,48.63-62.2,0-27.12-13.56-61.53-48-61.53S1069.45,360,1069.45,390.45Z"/><path class="cls-2" d="M1233.21,235.3h29.11V470.17h-29.11Z"/><path class="cls-2" d="M1343.7,265.07c.33,9.92-7,17.86-18.53,17.86-10.25,0-17.53-7.94-17.53-17.86a17.74,17.74,0,0,1,18.19-18.2C1336.75,246.87,1343.7,254.81,1343.7,265.07Zm-32.42,205.1V310.06h29.11V470.17Z"/><path class="cls-3" d="M1545.49,462.89c-10.59,5.3-31.76,10.59-58.88,10.59-62.86,0-110.17-39.7-110.17-112.81,0-69.8,47.31-117.1,116.45-117.1,27.79,0,45.32,6,52.93,9.92l-7,23.49c-10.91-5.3-26.46-9.27-45-9.27-52.27,0-87,33.42-87,92,0,54.58,31.43,89.65,85.68,89.65,17.53,0,35.4-3.64,47-9.26Z"/><path class="cls-3" d="M1721.81,388.79c0,59.22-41,85-79.72,85-43.34,0-76.75-31.76-76.75-82.37,0-53.59,35.07-85,79.4-85C1690.72,306.42,1721.81,339.83,1721.81,388.79Zm-127,1.66c0,35.06,20.18,61.53,48.63,61.53,27.79,0,48.63-26.14,48.63-62.2,0-27.12-13.56-61.53-48-61.53S1594.78,360,1594.78,390.45Z"/><path class="cls-3" d="M1903.43,388.79c0,59.22-41,85-79.72,85-43.34,0-76.75-31.76-76.75-82.37,0-53.59,35.06-85,79.39-85C1872.33,306.42,1903.43,339.83,1903.43,388.79Zm-127,1.66c0,35.06,20.18,61.53,48.63,61.53,27.79,0,48.63-26.14,48.63-62.2,0-27.12-13.57-61.53-48-61.53S1776.4,360,1776.4,390.45Z"/><path class="cls-3" d="M1940.15,360c0-18.86-.33-35.06-1.32-49.95h25.47l1,31.43h1.33c7.27-21.51,24.81-35.07,44.32-35.07a31.65,31.65,0,0,1,8.28,1v27.46a43.9,43.9,0,0,0-9.93-1c-20.51,0-35.06,15.54-39,37.38a81,81,0,0,0-1.33,13.56v85.35h-28.78Z"/><path class="cls-3" d="M2183.3,235.3V428.82c0,14.22.33,30.43,1.32,41.35h-26.13l-1.33-27.79h-.66c-8.93,17.87-28.45,31.43-54.58,31.43-38.71,0-68.48-32.75-68.48-81.38-.33-53.26,32.75-86,71.79-86,24.48,0,41,11.58,48.3,24.48h.66V235.3Zm-29.11,139.93a51,51,0,0,0-1.33-12.24c-4.3-18.53-20.18-33.74-42-33.74-30.1,0-48,26.46-48,61.86,0,32.42,15.88,59.21,47.31,59.21,19.52,0,37.38-12.9,42.67-34.73a50.21,50.21,0,0,0,1.33-12.57Z"/><path class="cls-3" d="M2227.63,440.4C2236.23,446,2251.45,452,2266,452c21.17,0,31.1-10.59,31.1-23.82,0-13.9-8.27-21.5-29.77-29.44-28.78-10.26-42.35-26.14-42.35-45.33,0-25.8,20.84-47,55.25-47,16.21,0,30.43,4.63,39.36,9.92l-7.27,21.18a62.34,62.34,0,0,0-32.75-9.27c-17.21,0-26.8,9.93-26.8,21.84,0,13.23,9.59,19.18,30.43,27.12,27.79,10.59,42,24.48,42,48.3,0,28.12-21.84,48-59.88,48-17.53,0-33.74-4.3-45-10.92Z"/></g></g><g id="Icon"><g id="Ecoli"><path class="cls-4" d="M580.71,659.26a71.21,71.21,0,0,1-34.7-7.5c-40.3-20.26-96.48-59.06-135.22-128.82-40-72-49.33-158-26.27-242.23,15.18-55.45,44-104.86,85.65-146.85a350.57,350.57,0,0,1,74.39-57.35,70.9,70.9,0,0,1,70.13,123.24c-21.72,12.36-74.31,48.64-93.41,118.4-7.65,27.94-16.07,82.75,13.47,136,21.2,38.17,52.46,59.66,75,71a70.9,70.9,0,0,1-29,134.19Z"/><path class="cls-3" d="M577.88,665.31a77.17,77.17,0,0,1-34.56-8.19C502.26,636.48,445,597,405.54,525.85c-40.76-73.39-50.28-161-26.81-246.73,15.46-56.45,44.79-106.75,87.18-149.48a356.59,356.59,0,0,1,75.68-58.35A76.9,76.9,0,0,1,617.66,205c-21.08,12-72.09,47.18-90.59,114.78-7.41,27.06-15.58,80.11,12.92,131.44,20.46,36.84,50.67,57.6,72.41,68.53A76.9,76.9,0,0,1,581,665.25h0C579.92,665.29,578.9,665.31,577.88,665.31Zm1.78-592.08c-.88,0-1.77,0-2.66,0a65.29,65.29,0,0,0-29.48,8.45,344,344,0,0,0-73.09,56.36c-40.92,41.25-69.22,89.77-84.13,144.2C367.67,365,376.8,449.39,416,520c38,68.43,93.12,106.49,132.68,126.37a64.88,64.88,0,0,0,31.75,6.87h0A64.9,64.9,0,0,0,607,530.43c-23.25-11.69-55.56-33.91-77.51-73.42-30.57-55.06-21.9-111.62-14-140.44,19.7-71.93,73.86-109.3,96.23-122a64.9,64.9,0,0,0-32.06-121.3Z"/></g><g id="C"><path class="cls-3" d="M326.66,521.35c-14.94,7.47-44.83,14.94-83.13,14.94C154.79,536.29,88,480.25,88,377c0-98.55,66.79-165.34,164.4-165.34,39.24,0,64,8.41,74.73,14l-9.81,33.16c-15.41-7.47-37.36-13.07-63.52-13.07C180,245.79,131,293,131,375.63c0,77.06,44.37,126.57,121,126.57,24.76,0,50-5.14,66.33-13.08Z"/></g></g></svg>