<?xml version="1.0" encoding="utf-8"?>
<!-- Generator: Adobe Illustrator 21.1.0, SVG Export Plug-In . SVG Version: 6.00 Build 0)  -->
<svg version="1.1" id="Logo_1_" xmlns="http://www.w3.org/2000/svg" xmlns:xlink="http://www.w3.org/1999/xlink" x="0px" y="0px"
	 viewBox="0 0 3840 2160" style="enable-background:new 0 0 3840 2160;" xml:space="preserve">
<style type="text/css">
	.st0{fill:#7C7C7C;}
	.st1{fill:#D87E35;}
	.st2{display:none;}
	.st3{display:inline;fill:#F2A972;}
	.st4{display:inline;}
	.st5{fill:#FFFFFF;}
	.st6{fill:#F7CAA6;stroke:#D87E35;stroke-width:12;stroke-miterlimit:10;}
</style>
<g id="Transparent">
	<g id="Title">
		<path class="st0" d="M1750.7,1180.1c-10.6,5.3-31.8,10.6-58.9,10.6c-62.9,0-110.2-39.7-110.2-112.8c0-69.8,47.3-117.1,116.4-117.1
			c27.8,0,45.3,6,52.9,9.9l-6.9,23.5c-10.9-5.3-26.5-9.3-45-9.3c-52.3,0-87,33.4-87,92c0,54.6,31.4,89.7,85.7,89.7
			c17.5,0,35.4-3.6,47-9.3L1750.7,1180.1z"/>
		<path class="st0" d="M1927,1106c0,59.2-41,85-79.7,85c-43.3,0-76.7-31.8-76.7-82.4c0-53.6,35.1-85,79.4-85
			C1895.9,1023.6,1927,1057.1,1927,1106z M1800,1107.7c0,35.1,20.2,61.5,48.6,61.5c27.8,0,48.6-26.1,48.6-62.2
			c0-27.1-13.6-61.5-48-61.5S1800,1077.2,1800,1107.7z"/>
		<path class="st0" d="M1963.8,952.5h29.1v234.9h-29.1V952.5z"/>
		<path class="st0" d="M2074.2,982.3c0.3,9.9-6.9,17.9-18.5,17.9c-10.3,0-17.5-7.9-17.5-17.9c0-10.3,7.6-18.2,18.2-18.2
			C2067.3,964.1,2074.2,972,2074.2,982.3z M2041.8,1187.4v-160.1h29.1v160.1H2041.8z"/>
		<path class="st1" d="M2276,1180.1c-10.6,5.3-31.8,10.6-58.9,10.6c-62.9,0-110.2-39.7-110.2-112.8c0-69.8,47.3-117.1,116.4-117.1
			c27.8,0,45.3,6,52.9,9.9l-6.9,23.5c-10.9-5.3-26.5-9.3-45-9.3c-52.3,0-87,33.4-87,92c0,54.6,31.4,89.7,85.7,89.7
			c17.5,0,35.4-3.6,47-9.3L2276,1180.1z"/>
		<path class="st1" d="M2452.4,1106c0,59.2-41,85-79.7,85c-43.3,0-76.7-31.8-76.7-82.4c0-53.6,35.1-85,79.4-85
			C2421.3,1023.6,2452.4,1057.1,2452.4,1106z M2325.3,1107.7c0,35.1,20.2,61.5,48.6,61.5c27.8,0,48.6-26.1,48.6-62.2
			c0-27.1-13.6-61.5-48-61.5S2325.3,1077.2,2325.3,1107.7z"/>
		<path class="st1" d="M2634,1106c0,59.2-41,85-79.7,85c-43.3,0-76.7-31.8-76.7-82.4c0-53.6,35.1-85,79.4-85
			C2602.9,1023.6,2634,1057.1,2634,1106z M2506.9,1107.7c0,35.1,20.2,61.5,48.6,61.5c27.8,0,48.6-26.1,48.6-62.2
			c0-27.1-13.6-61.5-48-61.5S2506.9,1077.2,2506.9,1107.7z"/>
		<path class="st1" d="M2670.7,1077.2c0-18.9-0.3-35.1-1.3-50h25.5l1,31.4h1.3c7.3-21.5,24.8-35.1,44.3-35.1c3.3,0,5.6,0.3,8.3,1
			v27.5c-3-0.7-6-1-9.9-1c-20.5,0-35.1,15.5-39,37.4c-0.7,4-1.3,8.6-1.3,13.6v85.3h-28.8V1077.2z"/>
		<path class="st1" d="M2913.8,952.5V1146c0,14.2,0.3,30.4,1.3,41.4H2889l-1.3-27.8h-0.7c-8.9,17.9-28.4,31.4-54.6,31.4
			c-38.7,0-68.5-32.8-68.5-81.4c-0.3-53.3,32.8-86,71.8-86c24.5,0,41,11.6,48.3,24.5h0.7v-95.6H2913.8z M2884.7,1092.5
			c0-3.6-0.3-8.6-1.3-12.2c-4.3-18.5-20.2-33.7-42-33.7c-30.1,0-48,26.5-48,61.9c0,32.4,15.9,59.2,47.3,59.2
			c19.5,0,37.4-12.9,42.7-34.7c1-4,1.3-7.9,1.3-12.6V1092.5z"/>
		<path class="st1" d="M2958.2,1157.6c8.6,5.6,23.8,11.6,38.4,11.6c21.2,0,31.1-10.6,31.1-23.8c0-13.9-8.3-21.5-29.8-29.4
			c-28.8-10.3-42.3-26.1-42.3-45.3c0-25.8,20.8-47,55.2-47c16.2,0,30.4,4.6,39.4,9.9l-7.3,21.2c-6.3-4-17.9-9.3-32.8-9.3
			c-17.2,0-26.8,9.9-26.8,21.8c0,13.2,9.6,19.2,30.4,27.1c27.8,10.6,42,24.5,42,48.3c0,28.1-21.8,48-59.9,48
			c-17.5,0-33.7-4.3-45-10.9L2958.2,1157.6z"/>
	</g>
</g>
<g id="Color" class="st2">
	<rect id="Bacground" x="-3.5" y="-0.1" class="st3" width="3840" height="2160"/>
	<g id="Title_1_" class="st4">
		<path class="st5" d="M1750.7,1180.1c-10.6,5.3-31.8,10.6-58.9,10.6c-62.9,0-110.2-39.7-110.2-112.8c0-69.8,47.3-117.1,116.4-117.1
			c27.8,0,45.3,6,52.9,9.9l-6.9,23.5c-10.9-5.3-26.5-9.3-45-9.3c-52.3,0-87,33.4-87,92c0,54.6,31.4,89.7,85.7,89.7
			c17.5,0,35.4-3.6,47-9.3L1750.7,1180.1z"/>
		<path class="st5" d="M1927,1106c0,59.2-41,85-79.7,85c-43.3,0-76.7-31.8-76.7-82.4c0-53.6,35.1-85,79.4-85
			C1895.9,1023.6,1927,1057.1,1927,1106z M1800,1107.7c0,35.1,20.2,61.5,48.6,61.5c27.8,0,48.6-26.1,48.6-62.2
			c0-27.1-13.6-61.5-48-61.5S1800,1077.2,1800,1107.7z"/>
		<path class="st5" d="M1963.8,952.5h29.1v234.9h-29.1V952.5z"/>
		<path class="st5" d="M2074.2,982.3c0.3,9.9-6.9,17.9-18.5,17.9c-10.3,0-17.5-7.9-17.5-17.9c0-10.3,7.6-18.2,18.2-18.2
			C2067.3,964.1,2074.2,972,2074.2,982.3z M2041.8,1187.4v-160.1h29.1v160.1H2041.8z"/>
		<path class="st1" d="M2276,1180.1c-10.6,5.3-31.8,10.6-58.9,10.6c-62.9,0-110.2-39.7-110.2-112.8c0-69.8,47.3-117.1,116.4-117.1
			c27.8,0,45.3,6,52.9,9.9l-6.9,23.5c-10.9-5.3-26.5-9.3-45-9.3c-52.3,0-87,33.4-87,92c0,54.6,31.4,89.7,85.7,89.7
			c17.5,0,35.4-3.6,47-9.3L2276,1180.1z"/>
		<path class="st1" d="M2452.4,1106c0,59.2-41,85-79.7,85c-43.3,0-76.7-31.8-76.7-82.4c0-53.6,35.1-85,79.4-85
			C2421.3,1023.6,2452.4,1057.1,2452.4,1106z M2325.3,1107.7c0,35.1,20.2,61.5,48.6,61.5c27.8,0,48.6-26.1,48.6-62.2
			c0-27.1-13.6-61.5-48-61.5S2325.3,1077.2,2325.3,1107.7z"/>
		<path class="st1" d="M2634,1106c0,59.2-41,85-79.7,85c-43.3,0-76.7-31.8-76.7-82.4c0-53.6,35.1-85,79.4-85
			C2602.9,1023.6,2634,1057.1,2634,1106z M2506.9,1107.7c0,35.1,20.2,61.5,48.6,61.5c27.8,0,48.6-26.1,48.6-62.2
			c0-27.1-13.6-61.5-48-61.5S2506.9,1077.2,2506.9,1107.7z"/>
		<path class="st1" d="M2670.7,1077.2c0-18.9-0.3-35.1-1.3-50h25.5l1,31.4h1.3c7.3-21.5,24.8-35.1,44.3-35.1c3.3,0,5.6,0.3,8.3,1
			v27.5c-3-0.7-6-1-9.9-1c-20.5,0-35.1,15.5-39,37.4c-0.7,4-1.3,8.6-1.3,13.6v85.3h-28.8V1077.2z"/>
		<path class="st1" d="M2913.8,952.5V1146c0,14.2,0.3,30.4,1.3,41.4H2889l-1.3-27.8h-0.7c-8.9,17.9-28.4,31.4-54.6,31.4
			c-38.7,0-68.5-32.8-68.5-81.4c-0.3-53.3,32.8-86,71.8-86c24.5,0,41,11.6,48.3,24.5h0.7v-95.6H2913.8z M2884.7,1092.5
			c0-3.6-0.3-8.6-1.3-12.2c-4.3-18.5-20.2-33.7-42-33.7c-30.1,0-48,26.5-48,61.9c0,32.4,15.9,59.2,47.3,59.2
			c19.5,0,37.4-12.9,42.7-34.7c1-4,1.3-7.9,1.3-12.6V1092.5z"/>
		<path class="st1" d="M2958.2,1157.6c8.6,5.6,23.8,11.6,38.4,11.6c21.2,0,31.1-10.6,31.1-23.8c0-13.9-8.3-21.5-29.8-29.4
			c-28.8-10.3-42.3-26.1-42.3-45.3c0-25.8,20.8-47,55.2-47c16.2,0,30.4,4.6,39.4,9.9l-7.3,21.2c-6.3-4-17.9-9.3-32.8-9.3
			c-17.2,0-26.8,9.9-26.8,21.8c0,13.2,9.6,19.2,30.4,27.1c27.8,10.6,42,24.5,42,48.3c0,28.1-21.8,48-59.9,48
			c-17.5,0-33.7-4.3-45-10.9L2958.2,1157.6z"/>
	</g>
</g>
<g id="Icon">
	<g id="Ecoli_1_">
		<path class="st6" d="M1311.3,1376.5c-12,0.5-24-2.1-34.7-7.5c-40.3-20.3-96.5-59.1-135.2-128.8c-40-72-49.3-158-26.3-242.2
			c15.2-55.4,44-104.9,85.7-146.8c28.3-28.5,56.1-46.9,74.4-57.4c9.8-5.6,20.9-8.8,32.2-9.2c26.6-1.1,51.3,12.6,64.5,35.8
			c19.3,34,7.4,77.4-26.6,96.7c-21.7,12.4-74.3,48.6-93.4,118.4c-7.6,27.9-16.1,82.7,13.5,135.9c21.2,38.2,52.5,59.7,75,71
			c16.9,8.5,29.5,23.1,35.5,41.1c5.9,18,4.5,37.2-4,54.1C1360.2,1360.5,1337,1375.4,1311.3,1376.5z"/>
	</g>
	<g id="C_2_">
		<path class="st1" d="M1057.2,1238.6c-14.9,7.5-44.8,14.9-83.1,14.9c-88.7,0-155.5-56-155.5-159.3c0-98.5,66.8-165.3,164.4-165.3
			c39.2,0,64,8.4,74.7,14l-9.8,33.2c-15.4-7.5-37.4-13.1-63.5-13.1c-73.8,0-122.8,47.2-122.8,129.8c0,77.1,44.4,126.6,121,126.6
			c24.8,0,50-5.1,66.3-13.1L1057.2,1238.6z"/>
	</g>
</g>
</svg>
